<svg width="148" height="20" viewBox="0 0 148 20" fill="none" xmlns="http://www.w3.org/2000/svg">
    <path d="M6.44 19.168C5.272 19.168 4.216 18.968 3.272 18.568C2.344 18.168 1.608 17.592 1.064 16.84C0.519999 16.088 0.239999 15.2 0.223999 14.176H3.824C3.872 14.864 4.112 15.408 4.544 15.808C4.992 16.208 5.6 16.408 6.368 16.408C7.152 16.408 7.768 16.224 8.216 15.856C8.664 15.472 8.888 14.976 8.888 14.368C8.888 13.872 8.736 13.464 8.432 13.144C8.128 12.824 7.744 12.576 7.28 12.4C6.832 12.208 6.208 12 5.408 11.776C4.32 11.456 3.432 11.144 2.744 10.84C2.072 10.52 1.488 10.048 0.991999 9.42402C0.511999 8.78402 0.271999 7.93602 0.271999 6.88002C0.271999 5.88802 0.519999 5.02402 1.016 4.28802C1.512 3.55202 2.208 2.99202 3.104 2.60802C4 2.20802 5.024 2.00802 6.176 2.00802C7.904 2.00802 9.304 2.43202 10.376 3.28002C11.464 4.11202 12.064 5.28002 12.176 6.78402H8.48C8.448 6.20802 8.2 5.73602 7.736 5.36802C7.288 4.98402 6.688 4.79202 5.936 4.79202C5.28 4.79202 4.752 4.96002 4.352 5.29602C3.968 5.63202 3.776 6.12002 3.776 6.76002C3.776 7.20802 3.92 7.58402 4.208 7.88802C4.512 8.17602 4.88 8.41602 5.312 8.60802C5.76 8.78402 6.384 8.99202 7.184 9.23202C8.272 9.55202 9.16 9.87202 9.848 10.192C10.536 10.512 11.128 10.992 11.624 11.632C12.12 12.272 12.368 13.112 12.368 14.152C12.368 15.048 12.136 15.88 11.672 16.648C11.208 17.416 10.528 18.032 9.632 18.496C8.736 18.944 7.672 19.168 6.44 19.168Z" fill="#1DA1F2"/>
    <path d="M14.897 12.352C14.897 10.976 15.177 9.77602 15.737 8.75202C16.297 7.71202 17.073 6.91202 18.065 6.35202C19.057 5.77602 20.193 5.48802 21.473 5.48802C23.121 5.48802 24.481 5.90402 25.553 6.73602C26.641 7.55202 27.369 8.70402 27.737 10.192H24.113C23.921 9.61602 23.593 9.16802 23.129 8.84802C22.681 8.51202 22.121 8.34402 21.449 8.34402C20.489 8.34402 19.729 8.69602 19.169 9.40002C18.609 10.088 18.329 11.072 18.329 12.352C18.329 13.616 18.609 14.6 19.169 15.304C19.729 15.992 20.489 16.336 21.449 16.336C22.809 16.336 23.697 15.728 24.113 14.512H27.737C27.369 15.952 26.641 17.096 25.553 17.944C24.465 18.792 23.105 19.216 21.473 19.216C20.193 19.216 19.057 18.936 18.065 18.376C17.073 17.8 16.297 17 15.737 15.976C15.177 14.936 14.897 13.728 14.897 12.352Z" fill="#1DA1F2"/>
    <path d="M38.1665 5.51202C39.1745 5.51202 40.0705 5.73602 40.8545 6.18402C41.6385 6.61602 42.2465 7.26402 42.6785 8.12802C43.1265 8.97602 43.3505 10 43.3505 11.2V19H39.9905V11.656C39.9905 10.6 39.7265 9.79202 39.1985 9.23202C38.6705 8.65602 37.9505 8.36802 37.0385 8.36802C36.1105 8.36802 35.3745 8.65602 34.8305 9.23202C34.3025 9.79202 34.0385 10.6 34.0385 11.656V19H30.6785V1.24002H34.0385V7.36002C34.4705 6.78402 35.0465 6.33602 35.7665 6.01602C36.4865 5.68002 37.2865 5.51202 38.1665 5.51202Z" fill="#1DA1F2"/>
    <path d="M52.9297 19.216C51.6497 19.216 50.4977 18.936 49.4737 18.376C48.4497 17.8 47.6417 16.992 47.0497 15.952C46.4737 14.912 46.1857 13.712 46.1857 12.352C46.1857 10.992 46.4817 9.79202 47.0737 8.75202C47.6817 7.71202 48.5057 6.91202 49.5457 6.35202C50.5857 5.77602 51.7457 5.48802 53.0257 5.48802C54.3057 5.48802 55.4657 5.77602 56.5057 6.35202C57.5457 6.91202 58.3617 7.71202 58.9537 8.75202C59.5617 9.79202 59.8657 10.992 59.8657 12.352C59.8657 13.712 59.5537 14.912 58.9297 15.952C58.3217 16.992 57.4897 17.8 56.4337 18.376C55.3937 18.936 54.2257 19.216 52.9297 19.216ZM52.9297 16.288C53.5377 16.288 54.1057 16.144 54.6337 15.856C55.1777 15.552 55.6097 15.104 55.9297 14.512C56.2497 13.92 56.4097 13.2 56.4097 12.352C56.4097 11.088 56.0737 10.12 55.4017 9.44802C54.7457 8.76002 53.9377 8.41602 52.9777 8.41602C52.0177 8.41602 51.2097 8.76002 50.5537 9.44802C49.9137 10.12 49.5937 11.088 49.5937 12.352C49.5937 13.616 49.9057 14.592 50.5297 15.28C51.1697 15.952 51.9697 16.288 52.9297 16.288Z" fill="#1DA1F2"/>
    <path d="M68.7144 19.216C67.4344 19.216 66.2824 18.936 65.2584 18.376C64.2344 17.8 63.4264 16.992 62.8344 15.952C62.2584 14.912 61.9704 13.712 61.9704 12.352C61.9704 10.992 62.2664 9.79202 62.8584 8.75202C63.4664 7.71202 64.2904 6.91202 65.3304 6.35202C66.3704 5.77602 67.5304 5.48802 68.8104 5.48802C70.0904 5.48802 71.2504 5.77602 72.2904 6.35202C73.3304 6.91202 74.1464 7.71202 74.7384 8.75202C75.3464 9.79202 75.6504 10.992 75.6504 12.352C75.6504 13.712 75.3384 14.912 74.7144 15.952C74.1064 16.992 73.2744 17.8 72.2184 18.376C71.1784 18.936 70.0104 19.216 68.7144 19.216ZM68.7144 16.288C69.3224 16.288 69.8904 16.144 70.4184 15.856C70.9624 15.552 71.3944 15.104 71.7144 14.512C72.0344 13.92 72.1944 13.2 72.1944 12.352C72.1944 11.088 71.8584 10.12 71.1864 9.44802C70.5304 8.76002 69.7224 8.41602 68.7624 8.41602C67.8024 8.41602 66.9944 8.76002 66.3384 9.44802C65.6984 10.12 65.3784 11.088 65.3784 12.352C65.3784 13.616 65.6904 14.592 66.3144 15.28C66.9544 15.952 67.7544 16.288 68.7144 16.288Z" fill="#1DA1F2"/>
    <path d="M81.9551 1.24002V19H78.5951V1.24002H81.9551Z" fill="#1DA1F2"/>
    <path d="M100.083 19H96.7227L89.1147 7.50402V19H85.7547V2.22402H89.1147L96.7227 13.744V2.22402H100.083V19Z" fill="#5E6278"/>
    <path d="M105.587 4.12002C104.995 4.12002 104.499 3.93602 104.099 3.56802C103.715 3.18402 103.523 2.71202 103.523 2.15202C103.523 1.59202 103.715 1.12802 104.099 0.760021C104.499 0.376021 104.995 0.184021 105.587 0.184021C106.179 0.184021 106.667 0.376021 107.051 0.760021C107.451 1.12802 107.651 1.59202 107.651 2.15202C107.651 2.71202 107.451 3.18402 107.051 3.56802C106.667 3.93602 106.179 4.12002 105.587 4.12002ZM107.243 5.70402V19H103.883V5.70402H107.243Z" fill="#5E6278"/>
    <path d="M110.179 12.304C110.179 10.96 110.443 9.76802 110.971 8.72802C111.515 7.68802 112.251 6.88802 113.179 6.32802C114.107 5.76802 115.139 5.48802 116.275 5.48802C117.139 5.48802 117.963 5.68002 118.747 6.06402C119.531 6.43202 120.155 6.92802 120.619 7.55202V1.24002H124.027V19H120.619V17.032C120.203 17.688 119.619 18.216 118.867 18.616C118.115 19.016 117.243 19.216 116.251 19.216C115.131 19.216 114.107 18.928 113.179 18.352C112.251 17.776 111.515 16.968 110.971 15.928C110.443 14.872 110.179 13.664 110.179 12.304ZM120.643 12.352C120.643 11.536 120.483 10.84 120.163 10.264C119.843 9.67202 119.411 9.22402 118.867 8.92002C118.323 8.60002 117.739 8.44002 117.115 8.44002C116.491 8.44002 115.915 8.59202 115.387 8.89602C114.859 9.20002 114.427 9.64802 114.091 10.24C113.771 10.816 113.611 11.504 113.611 12.304C113.611 13.104 113.771 13.808 114.091 14.416C114.427 15.008 114.859 15.464 115.387 15.784C115.931 16.104 116.507 16.264 117.115 16.264C117.739 16.264 118.323 16.112 118.867 15.808C119.411 15.488 119.843 15.04 120.163 14.464C120.483 13.872 120.643 13.168 120.643 12.352Z" fill="#5E6278"/>
    <path d="M135.277 5.51202C136.285 5.51202 137.18 5.73602 137.964 6.18402C138.748 6.61602 139.356 7.26402 139.788 8.12802C140.236 8.97602 140.46 10 140.46 11.2V19H137.1V11.656C137.1 10.6 136.837 9.79202 136.309 9.23202C135.781 8.65602 135.06 8.36802 134.148 8.36802C133.22 8.36802 132.485 8.65602 131.941 9.23202C131.413 9.79202 131.148 10.6 131.148 11.656V19H127.788V1.24002H131.148V7.36002C131.58 6.78402 132.156 6.33602 132.876 6.01602C133.596 5.68002 134.397 5.51202 135.277 5.51202Z" fill="#5E6278"/>
    <path d="M145.84 4.12002C145.248 4.12002 144.752 3.93602 144.352 3.56802C143.968 3.18402 143.776 2.71202 143.776 2.15202C143.776 1.59202 143.968 1.12802 144.352 0.760021C144.752 0.376021 145.248 0.184021 145.84 0.184021C146.432 0.184021 146.92 0.376021 147.304 0.760021C147.704 1.12802 147.904 1.59202 147.904 2.15202C147.904 2.71202 147.704 3.18402 147.304 3.56802C146.92 3.93602 146.432 4.12002 145.84 4.12002ZM147.496 5.70402V19H144.136V5.70402H147.496Z" fill="#5E6278"/>
    </svg>
