<svg width="148" height="20" viewBox="0 0 148 20" fill="none" xmlns="http://www.w3.org/2000/svg">
    <path d="M6.44 19.168C5.272 19.168 4.216 18.968 3.272 18.568C2.344 18.168 1.608 17.592 1.064 16.84C0.519999 16.088 0.239999 15.2 0.223999 14.176H3.824C3.872 14.864 4.112 15.408 4.544 15.808C4.992 16.208 5.6 16.408 6.368 16.408C7.152 16.408 7.768 16.224 8.216 15.856C8.664 15.472 8.888 14.976 8.888 14.368C8.888 13.872 8.736 13.464 8.432 13.144C8.128 12.824 7.744 12.576 7.28 12.4C6.832 12.208 6.208 12 5.408 11.776C4.32 11.456 3.432 11.144 2.744 10.84C2.072 10.52 1.488 10.048 0.991999 9.42396C0.511999 8.78396 0.271999 7.93596 0.271999 6.87996C0.271999 5.88796 0.519999 5.02396 1.016 4.28796C1.512 3.55196 2.208 2.99196 3.104 2.60796C4 2.20796 5.024 2.00796 6.176 2.00796C7.904 2.00796 9.304 2.43196 10.376 3.27996C11.464 4.11196 12.064 5.27996 12.176 6.78396H8.48C8.448 6.20796 8.2 5.73596 7.736 5.36796C7.288 4.98396 6.688 4.79196 5.936 4.79196C5.28 4.79196 4.752 4.95996 4.352 5.29596C3.968 5.63196 3.776 6.11996 3.776 6.75996C3.776 7.20796 3.92 7.58396 4.208 7.88796C4.512 8.17596 4.88 8.41596 5.312 8.60796C5.76 8.78396 6.384 8.99196 7.184 9.23196C8.272 9.55196 9.16 9.87196 9.848 10.192C10.536 10.512 11.128 10.992 11.624 11.632C12.12 12.272 12.368 13.112 12.368 14.152C12.368 15.048 12.136 15.88 11.672 16.648C11.208 17.416 10.528 18.032 9.632 18.496C8.736 18.944 7.672 19.168 6.44 19.168Z" fill="#1DA1F2"/>
    <path d="M14.897 12.352C14.897 10.976 15.177 9.77596 15.737 8.75196C16.297 7.71196 17.073 6.91196 18.065 6.35196C19.057 5.77596 20.193 5.48796 21.473 5.48796C23.121 5.48796 24.481 5.90396 25.553 6.73596C26.641 7.55196 27.369 8.70396 27.737 10.192H24.113C23.921 9.61596 23.593 9.16796 23.129 8.84796C22.681 8.51196 22.121 8.34396 21.449 8.34396C20.489 8.34396 19.729 8.69596 19.169 9.39996C18.609 10.088 18.329 11.072 18.329 12.352C18.329 13.616 18.609 14.6 19.169 15.304C19.729 15.992 20.489 16.336 21.449 16.336C22.809 16.336 23.697 15.728 24.113 14.512H27.737C27.369 15.952 26.641 17.096 25.553 17.944C24.465 18.792 23.105 19.216 21.473 19.216C20.193 19.216 19.057 18.936 18.065 18.376C17.073 17.8 16.297 17 15.737 15.976C15.177 14.936 14.897 13.728 14.897 12.352Z" fill="#1DA1F2"/>
    <path d="M38.1665 5.51196C39.1745 5.51196 40.0705 5.73596 40.8545 6.18396C41.6385 6.61596 42.2465 7.26396 42.6785 8.12796C43.1265 8.97596 43.3505 9.99996 43.3505 11.2V19H39.9905V11.656C39.9905 10.6 39.7265 9.79196 39.1985 9.23196C38.6705 8.65596 37.9505 8.36796 37.0385 8.36796C36.1105 8.36796 35.3745 8.65596 34.8305 9.23196C34.3025 9.79196 34.0385 10.6 34.0385 11.656V19H30.6785V1.23996H34.0385V7.35996C34.4705 6.78396 35.0465 6.33596 35.7665 6.01596C36.4865 5.67996 37.2865 5.51196 38.1665 5.51196Z" fill="#1DA1F2"/>
    <path d="M52.9297 19.216C51.6497 19.216 50.4977 18.936 49.4737 18.376C48.4497 17.8 47.6417 16.992 47.0497 15.952C46.4737 14.912 46.1857 13.712 46.1857 12.352C46.1857 10.992 46.4817 9.79196 47.0737 8.75196C47.6817 7.71196 48.5057 6.91196 49.5457 6.35196C50.5857 5.77596 51.7457 5.48796 53.0257 5.48796C54.3057 5.48796 55.4657 5.77596 56.5057 6.35196C57.5457 6.91196 58.3617 7.71196 58.9537 8.75196C59.5617 9.79196 59.8657 10.992 59.8657 12.352C59.8657 13.712 59.5537 14.912 58.9297 15.952C58.3217 16.992 57.4897 17.8 56.4337 18.376C55.3937 18.936 54.2257 19.216 52.9297 19.216ZM52.9297 16.288C53.5377 16.288 54.1057 16.144 54.6337 15.856C55.1777 15.552 55.6097 15.104 55.9297 14.512C56.2497 13.92 56.4097 13.2 56.4097 12.352C56.4097 11.088 56.0737 10.12 55.4017 9.44796C54.7457 8.75996 53.9377 8.41596 52.9777 8.41596C52.0177 8.41596 51.2097 8.75996 50.5537 9.44796C49.9137 10.12 49.5937 11.088 49.5937 12.352C49.5937 13.616 49.9057 14.592 50.5297 15.28C51.1697 15.952 51.9697 16.288 52.9297 16.288Z" fill="#1DA1F2"/>
    <path d="M68.7144 19.216C67.4344 19.216 66.2824 18.936 65.2584 18.376C64.2344 17.8 63.4264 16.992 62.8344 15.952C62.2584 14.912 61.9704 13.712 61.9704 12.352C61.9704 10.992 62.2664 9.79196 62.8584 8.75196C63.4664 7.71196 64.2904 6.91196 65.3304 6.35196C66.3704 5.77596 67.5304 5.48796 68.8104 5.48796C70.0904 5.48796 71.2504 5.77596 72.2904 6.35196C73.3304 6.91196 74.1464 7.71196 74.7384 8.75196C75.3464 9.79196 75.6504 10.992 75.6504 12.352C75.6504 13.712 75.3384 14.912 74.7144 15.952C74.1064 16.992 73.2744 17.8 72.2184 18.376C71.1784 18.936 70.0104 19.216 68.7144 19.216ZM68.7144 16.288C69.3224 16.288 69.8904 16.144 70.4184 15.856C70.9624 15.552 71.3944 15.104 71.7144 14.512C72.0344 13.92 72.1944 13.2 72.1944 12.352C72.1944 11.088 71.8584 10.12 71.1864 9.44796C70.5304 8.75996 69.7224 8.41596 68.7624 8.41596C67.8024 8.41596 66.9944 8.75996 66.3384 9.44796C65.6984 10.12 65.3784 11.088 65.3784 12.352C65.3784 13.616 65.6904 14.592 66.3144 15.28C66.9544 15.952 67.7544 16.288 68.7144 16.288Z" fill="#1DA1F2"/>
    <path d="M81.9551 1.23996V19H78.5951V1.23996H81.9551Z" fill="#1DA1F2"/>
    <path d="M100.083 19H96.7227L89.1147 7.50396V19H85.7547V2.22396H89.1147L96.7227 13.744V2.22396H100.083V19Z" fill="white"/>
    <path d="M105.587 4.11996C104.995 4.11996 104.499 3.93596 104.099 3.56796C103.715 3.18396 103.523 2.71196 103.523 2.15196C103.523 1.59196 103.715 1.12796 104.099 0.75996C104.499 0.37596 104.995 0.18396 105.587 0.18396C106.179 0.18396 106.667 0.37596 107.051 0.75996C107.451 1.12796 107.651 1.59196 107.651 2.15196C107.651 2.71196 107.451 3.18396 107.051 3.56796C106.667 3.93596 106.179 4.11996 105.587 4.11996ZM107.243 5.70396V19H103.883V5.70396H107.243Z" fill="white"/>
    <path d="M110.179 12.304C110.179 10.96 110.443 9.76796 110.971 8.72796C111.515 7.68796 112.251 6.88796 113.179 6.32796C114.107 5.76796 115.139 5.48796 116.275 5.48796C117.139 5.48796 117.963 5.67996 118.747 6.06396C119.531 6.43196 120.155 6.92796 120.619 7.55196V1.23996H124.027V19H120.619V17.032C120.203 17.688 119.619 18.216 118.867 18.616C118.115 19.016 117.243 19.216 116.251 19.216C115.131 19.216 114.107 18.928 113.179 18.352C112.251 17.776 111.515 16.968 110.971 15.928C110.443 14.872 110.179 13.664 110.179 12.304ZM120.643 12.352C120.643 11.536 120.483 10.84 120.163 10.264C119.843 9.67196 119.411 9.22396 118.867 8.91996C118.323 8.59996 117.739 8.43996 117.115 8.43996C116.491 8.43996 115.915 8.59196 115.387 8.89596C114.859 9.19996 114.427 9.64796 114.091 10.24C113.771 10.816 113.611 11.504 113.611 12.304C113.611 13.104 113.771 13.808 114.091 14.416C114.427 15.008 114.859 15.464 115.387 15.784C115.931 16.104 116.507 16.264 117.115 16.264C117.739 16.264 118.323 16.112 118.867 15.808C119.411 15.488 119.843 15.04 120.163 14.464C120.483 13.872 120.643 13.168 120.643 12.352Z" fill="white"/>
    <path d="M135.277 5.51196C136.285 5.51196 137.18 5.73596 137.964 6.18396C138.748 6.61596 139.356 7.26396 139.788 8.12796C140.236 8.97596 140.46 9.99996 140.46 11.2V19H137.1V11.656C137.1 10.6 136.837 9.79196 136.309 9.23196C135.781 8.65596 135.06 8.36796 134.148 8.36796C133.22 8.36796 132.485 8.65596 131.941 9.23196C131.413 9.79196 131.148 10.6 131.148 11.656V19H127.788V1.23996H131.148V7.35996C131.58 6.78396 132.156 6.33596 132.876 6.01596C133.596 5.67996 134.397 5.51196 135.277 5.51196Z" fill="white"/>
    <path d="M145.84 4.11996C145.248 4.11996 144.752 3.93596 144.352 3.56796C143.968 3.18396 143.776 2.71196 143.776 2.15196C143.776 1.59196 143.968 1.12796 144.352 0.75996C144.752 0.37596 145.248 0.18396 145.84 0.18396C146.432 0.18396 146.92 0.37596 147.304 0.75996C147.704 1.12796 147.904 1.59196 147.904 2.15196C147.904 2.71196 147.704 3.18396 147.304 3.56796C146.92 3.93596 146.432 4.11996 145.84 4.11996ZM147.496 5.70396V19H144.136V5.70396H147.496Z" fill="white"/>
    </svg>
