<svg width="284" height="164" viewBox="0 0 284 164" fill="none" xmlns="http://www.w3.org/2000/svg">
    <path d="M136.276 6.55999V157.44C136.276 161.063 139.205 164 142.818 164H162.555C166.171 164 169.101 161.058 169.096 157.433L169.005 76.6442C168.997 70.3849 176.903 67.6723 180.721 72.624L249.209 161.453C250.447 163.059 252.358 164 254.383 164H277.459C281.071 164 284 161.063 284 157.44V6.56C284 2.93701 281.071 0 277.459 0H257.69C254.086 0 251.162 2.92222 251.148 6.5357L250.831 87.4264C250.804 93.6782 242.9 96.3522 239.102 91.394L171.068 2.56402C169.83 0.947505 167.913 0 165.88 0H142.818C139.205 0 136.276 2.93701 136.276 6.55999Z" fill="white"/>
    <path d="M49.0595 0H114.472C123.504 0 130.825 7.34254 130.825 16.4C130.825 25.4575 123.504 32.8 114.472 32.8H49.0595C40.0279 32.8 32.7063 40.1425 32.7063 49.2C32.7063 58.2575 40.0279 65.6 49.0595 65.6H81.7659C108.861 65.6 130.825 87.6276 130.825 114.8C130.825 141.972 108.861 164 81.7658 164H16.3532C7.32156 164 0 156.657 0 147.6C0 138.543 7.32157 131.2 16.3532 131.2H81.7658C90.7974 131.2 98.119 123.857 98.119 114.8C98.119 105.743 90.7974 98.4 81.7658 98.4H49.0595C21.9647 98.4 0 76.3724 0 49.2C0 22.0276 21.9647 0 49.0595 0Z" fill="#1DA1F2"/>
    </svg>
