<svg width="262" height="229" viewBox="0 0 262 229" fill="none" xmlns="http://www.w3.org/2000/svg">
<path fill-rule="evenodd" clip-rule="evenodd" d="M270.761 227.742C264.902 215.882 257.368 211.836 248.159 215.605C238.95 219.375 233.397 216.67 231.501 207.491C230.695 204.205 229.771 202.043 228.729 201.004C221.586 193.886 211.336 195.287 201.412 203.83C194.314 209.745 190.266 217.716 189.27 227.742H270.761Z" fill="#71C900"/>
<path d="M216.363 204.226C213.982 205.494 209.998 202.655 207.466 197.885C204.933 193.115 204.811 188.219 207.192 186.951C209.574 185.683 213.557 188.522 216.09 193.292C218.623 198.063 218.745 202.958 216.363 204.226Z" fill="#57A100"/>
<path d="M211.419 194.296C216.439 202.417 219.407 211.39 220.322 221.214L220.044 221.239C219.133 211.458 216.179 202.527 211.181 194.443L211.419 194.296Z" fill="#3F3643"/>
<path d="M222.659 192.413C219.988 192.789 217.214 188.757 216.464 183.406C215.713 178.056 217.269 173.414 219.94 173.038C222.611 172.662 225.385 176.695 226.136 182.045C226.887 187.395 225.33 192.037 222.659 192.413Z" fill="#57A100"/>
<path d="M221.679 182.236C222.413 189.628 222.769 195.719 222.746 200.51C222.724 205.3 222.305 212.482 221.491 222.058L221.213 222.034C222.027 212.465 222.445 205.289 222.467 200.508C222.49 195.728 222.135 189.646 221.401 182.264L221.679 182.236Z" fill="#3F3643"/>
<path d="M233.001 184.675C230.819 183.088 231.62 178.257 234.791 173.886C237.962 169.515 242.302 167.259 244.484 168.847C246.666 170.435 245.864 175.265 242.694 179.636C239.523 184.007 235.183 186.263 233.001 184.675Z" fill="#57A100"/>
<path d="M240.057 175.581C230.901 185.63 224.888 201.124 222.024 222.065L221.747 222.027C224.619 201.034 230.652 185.489 239.851 175.392L240.057 175.581Z" fill="#3F3643"/>
<path d="M230.955 206.693C229.081 204.75 230.708 200.132 234.588 196.379C238.469 192.626 243.134 191.159 245.007 193.102C246.881 195.045 245.254 199.663 241.374 203.416C237.493 207.169 232.828 208.637 230.955 206.693Z" fill="#57A100"/>
<path d="M238.833 198.872C231.034 205.616 225.978 213.379 223.661 222.161L223.392 222.09C225.723 213.251 230.811 205.441 238.651 198.66L238.833 198.872Z" fill="#3F3643"/>
<path fill-rule="evenodd" clip-rule="evenodd" d="M240.62 227.696C235.624 217.758 230.199 214.525 224.347 217.997C218.494 221.47 214.712 220.738 212.999 215.803C212.006 213.53 211.023 212.068 210.049 211.416C205.385 208.294 199.419 209.238 195.116 213.519C189.466 219.139 185.564 223.881 183.409 227.742L240.62 227.696Z" fill="#57A100"/>
<path d="M52.2625 187.023C54.4446 185.435 53.6431 180.604 50.4723 176.233C47.3014 171.862 42.962 169.606 40.7798 171.194C38.5977 172.782 39.3992 177.613 42.57 181.983C45.7409 186.354 50.0803 188.611 52.2625 187.023Z" fill="#54A300"/>
<path d="M45.1701 177.928C54.3262 187.977 60.3392 203.471 63.2039 224.412L63.4804 224.374C60.6087 203.382 54.5757 187.836 45.3763 177.74L45.1701 177.928Z" fill="#3F3643"/>
<path d="M54.3082 209.041C56.1819 207.098 54.5551 202.48 50.6745 198.727C46.794 194.974 42.1292 193.506 40.2555 195.45C38.3818 197.393 40.0087 202.011 43.8893 205.764C47.7698 209.517 52.4345 210.984 54.3082 209.041Z" fill="#54A300"/>
<path d="M46.386 201.219C54.1849 207.964 59.2411 215.726 61.5578 224.508L61.8276 224.437C59.496 215.598 54.4085 207.788 46.5683 201.008L46.386 201.219Z" fill="#3F3643"/>
<path fill-rule="evenodd" clip-rule="evenodd" d="M31.5903 227.742H113.081C112.628 223.193 106.694 210.024 97.453 205.382C86.3782 199.82 76.4722 210.276 74.4894 213.052C68.0777 222.029 63.4015 219.395 54.1924 215.635C44.9832 211.874 37.4492 215.91 31.5903 227.742Z" fill="#6ECB00"/>
<path d="M82.4693 197.35C80.0877 198.618 76.104 195.779 73.5714 191.009C71.0387 186.238 70.9163 181.343 73.2979 180.075C75.6795 178.806 79.6632 181.646 82.1958 186.416C84.7284 191.186 84.8509 196.082 82.4693 197.35Z" fill="#54A300"/>
<path d="M77.5247 187.42C82.5448 195.54 85.5128 204.513 86.4284 214.337L86.1505 214.363C85.2389 204.582 82.2846 195.65 77.2874 187.567L77.5247 187.42Z" fill="#3F3643"/>
<path d="M97.0618 199.817C95.1881 197.874 96.8149 193.256 100.695 189.503C104.576 185.75 109.241 184.283 111.115 186.226C112.988 188.169 111.361 192.787 107.481 196.54C103.6 200.293 98.9355 201.76 97.0618 199.817Z" fill="#54A300"/>
<path d="M104.94 191.996C97.1407 198.74 92.0845 206.503 89.7677 215.285L89.4979 215.213C91.8296 206.375 96.9171 198.564 104.757 191.784L104.94 191.996Z" fill="#3F3643"/>
<path fill-rule="evenodd" clip-rule="evenodd" d="M123.686 227.696C119.318 220.153 114.207 218.117 108.354 221.59C99.5756 226.798 99.746 220.236 93.2854 213.021C90.3085 209.696 82.4846 209.238 78.182 213.519C72.5324 219.139 68.6301 223.881 66.4751 227.742L123.686 227.696Z" fill="#54A300"/>
<path fill-rule="evenodd" clip-rule="evenodd" d="M132.15 76.0128L119.59 78.8965L118.212 55.5153L108.853 50.8158L110.6 86.9064C110.677 88.5042 111.965 89.7756 113.561 89.8303L132.478 90.4778L132.15 76.0128Z" fill="#F7F7F7"/>
<path d="M170.15 71.0915C170.6 70.6863 170.84 70.1844 170.871 69.5857C170.903 68.987 170.716 68.4626 170.311 68.0126L165.335 62.4771C161.451 58.1566 157.237 55.6413 152.692 54.9311C148.148 54.2209 142.474 54.2447 135.67 55.0024C129.728 55.634 124.908 55.7026 121.209 55.2082C117.509 54.7139 114.244 52.8916 111.412 49.7413C108.256 46.2309 106.94 42.3241 107.465 38.0207C107.99 33.7173 110.23 29.7826 114.184 26.2167C118.318 22.4886 122.655 20.6151 127.194 20.5961C131.734 20.5771 135.581 22.3227 138.737 25.8331L141.286 28.6683C142.176 29.6584 143.161 29.6672 144.239 28.6947L156.156 16.9705C156.605 16.5653 156.825 16.0409 156.816 15.3972C156.807 14.7535 156.6 14.2066 156.196 13.7566L154.375 11.7314C149.762 6.60084 144.398 3.16755 138.28 1.43139C132.163 -0.304766 125.866 -0.249343 119.39 1.59766C112.914 3.44467 106.755 7.00207 100.913 12.27C92.1955 20.1313 87.3142 28.7299 86.269 38.0659C85.2239 47.402 88.1404 55.8953 95.0188 63.5461C98.5793 67.5065 102.351 70.2987 106.333 71.9228C110.316 73.5469 114.037 74.4283 117.498 74.5671C120.959 74.7059 125.274 74.4821 130.442 73.8957C135.611 73.3094 139.707 73.16 142.732 73.4474C145.757 73.7348 148.362 75.0936 150.547 77.5238L154.674 82.1143C155.078 82.5643 155.58 82.805 156.177 82.8364C156.775 82.8678 157.299 82.6809 157.748 82.2756L170.15 71.0915ZM190.451 105.347C193.237 102.834 194.719 99.8676 194.898 96.4466C195.077 93.0255 193.912 89.9199 191.404 87.1296C188.895 84.3393 185.953 82.877 182.578 82.7427C179.203 82.6085 176.122 83.7975 173.336 86.3099C170.55 88.8222 169.07 91.7462 168.895 95.0817C168.72 98.4173 169.887 101.48 172.396 104.27C174.905 107.061 177.867 108.545 181.283 108.725C184.698 108.904 187.754 107.778 190.451 105.347Z" fill="#3699FF"/>
<path fill-rule="evenodd" clip-rule="evenodd" d="M141.374 75.7677L138.542 63.4508C138.757 61.9183 139.001 60.181 139.273 58.2387C139.682 55.3252 136.973 48.0886 128.624 50.9939C123.701 52.7069 121.547 56.5752 122.67 61.7752C122.816 62.4551 124.898 69.456 132.003 66.1851L132.347 80.1736L141.374 75.7677Z" fill="#F5B7B3"/>
<path fill-rule="evenodd" clip-rule="evenodd" d="M132.002 66.1852C133.818 65.3055 134.831 64.1886 135.042 62.8345C134.718 66.2775 133.754 69.2061 132.149 71.6204L132.002 66.1852Z" fill="#DD9995"/>
<path fill-rule="evenodd" clip-rule="evenodd" d="M99.7769 113.519C98.3787 108.067 100.172 103.921 105.157 101.081L106.003 104.678L102.45 112.369L99.7769 113.519Z" fill="#B2B2B2"/>
<path fill-rule="evenodd" clip-rule="evenodd" d="M177.591 124.021C168.3 136.314 153.143 137.943 132.119 128.908C142.836 123.74 150.894 120.677 156.292 119.717C160.13 119.034 165.925 119.634 173.678 121.515L177.591 124.021Z" fill="#B2B2B2"/>
<path fill-rule="evenodd" clip-rule="evenodd" d="M105.34 101.692C101.633 97.4319 98.0463 95.302 94.5806 95.302C94.1313 95.9109 94.3785 96.5575 95.3222 97.2419C96.2658 97.9263 97.4684 98.9038 98.9298 100.174L94.6779 99.245C93.7682 99.0462 93.0772 98.3028 92.9441 97.3798C92.7133 95.7783 92.4201 94.9775 92.0644 94.9775C91.3822 94.9775 90.6696 97.2269 91.2445 98.9051C91.5789 99.8813 92.1017 101.083 92.8128 102.509C93.0178 102.92 93.3608 103.246 93.7817 103.429L104.544 108.114C105.537 106.654 106.056 105.549 106.099 104.8C106.143 104.051 105.89 103.015 105.34 101.692Z" fill="#F4B7B4"/>
<path fill-rule="evenodd" clip-rule="evenodd" d="M134.396 111.436L128.243 164.015L136.615 221.073H147.102L144.671 168.487L166.241 114.966L134.396 111.436Z" fill="#8E614F"/>
<path fill-rule="evenodd" clip-rule="evenodd" d="M166.241 114.966L173.679 171.863L190.564 220.714L180.184 221.073L156.634 171.863L141.917 121.885L166.241 114.966Z" fill="#AA7762"/>
<path fill-rule="evenodd" clip-rule="evenodd" d="M139.528 67.7817C138.051 70.1002 136.678 71.707 135.408 72.6023C134.138 73.4975 133.06 73.6167 132.172 72.9599C128.555 78.9303 126.996 84.6265 127.495 90.0485C127.994 95.4706 128.243 98.7906 128.243 100.009C127.335 100.555 125.071 100.912 121.45 101.081C117.83 101.249 112.399 101.249 105.157 101.081C105.189 103.68 104.875 105.745 104.215 107.276C103.555 108.807 102.075 110.888 99.7768 113.519C118.188 114.759 128.445 115.241 130.546 114.966C131.574 121.683 132.088 126.212 132.088 128.552C132.088 130.309 137.243 132.134 144.651 128.552C152.047 124.976 165.6 116.062 177.591 124.021C167.891 113.709 161.876 106.468 159.548 102.297C154.141 92.6133 151.859 84.9354 150.662 82.2206C149.36 79.2661 145.649 74.4531 139.528 67.7817Z" fill="white"/>
<path fill-rule="evenodd" clip-rule="evenodd" d="M136.615 221.073L124.322 226.012L123.367 228.301H149.847L147.103 221.073H136.615Z" fill="#151E5C" stroke="#151E5C"/>
<path fill-rule="evenodd" clip-rule="evenodd" d="M180.185 221.073L190.565 220.714L193.172 228.301H167.197L167.864 225.698L180.185 221.073Z" fill="#141B5E"/>
<path d="M124.202 60.3301C124.716 60.5763 125.214 60.6898 125.696 60.6707C126.177 60.6516 126.574 60.4999 126.886 60.2157" stroke="#0A0F43"/>
<path fill-rule="evenodd" clip-rule="evenodd" d="M118.326 50.5772C118.406 49.5914 120.955 42.8637 123.8 43.4887C126.646 44.1136 126.052 44.865 129.121 46.7957C131.215 48.1139 136.218 48.3007 137.888 49.7332C141.4 52.7464 141.4 62.825 138.593 63.7695C135.455 62.1099 134.515 60.457 135.774 58.8108C135.878 58.657 135.949 58.5467 135.989 58.48C136.711 57.2572 135.791 56.3789 134.482 57.0416C133.161 57.7143 132.466 57.4108 132.396 56.1313C132.336 56.1457 131.993 56.2084 131.368 56.3193C129.112 56.7193 127.485 56.8969 126.487 56.8521C122.108 56.6555 117.979 54.8484 118.326 50.5772Z" fill="#211177"/>
<path d="M130.373 115.632C141.858 114.764 146.686 107.631 144.799 94.379L144.246 94.4579C146.09 107.409 141.472 114.233 130.331 115.075L130.373 115.632Z" fill="#0042AD"/>
<path fill-rule="evenodd" clip-rule="evenodd" d="M92.3861 89.6669L94.3832 97.242L82.0044 89.6669H64.5218C63.2888 89.6669 62.2892 88.6658 62.2892 87.4308V70.3811C62.2892 69.1461 63.2888 68.145 64.5218 68.145H95.4996C96.7327 68.145 97.7323 69.1461 97.7323 70.3811V87.4308C97.7323 88.6658 96.7327 89.6669 95.4996 89.6669H92.3861Z" fill="#F64E60"/>
<path d="M172.053 20.3561V9.82468H181.317V0.784424H179.921V8.42715H170.658V18.9586H161.135V31.2068H162.53V20.3561H172.053Z" fill="#1BC5BD"/>
<path d="M178.246 112.726C185.491 112.726 191.363 106.845 191.363 99.5894C191.363 92.3341 185.491 86.4526 178.246 86.4526C171.002 86.4526 165.13 92.3341 165.13 99.5894C165.13 106.845 171.002 112.726 178.246 112.726ZM178.246 111.329C171.773 111.329 166.525 106.073 166.525 99.5894C166.525 93.106 171.773 87.8502 178.246 87.8502C184.72 87.8502 189.968 93.106 189.968 99.5894C189.968 106.073 184.72 111.329 178.246 111.329Z" fill="#3699FF"/>
<path fill-rule="evenodd" clip-rule="evenodd" d="M86.5697 34.4648L72.8947 41.3127V27.6169L86.5697 34.4648Z" fill="#FFA801"/>
<path d="M72.1623 152.562V142.03H62.8986V132.99H64.294V140.633H73.5577V151.164H83.0806V163.413H81.6852V152.562H72.1623Z" fill="#8950FC"/>
<path d="M197.364 37.3995H212.992V53.0518H197.364V37.3995Z" fill="#FFA800"/>
<path d="M207.41 148.922C205.407 148.922 203.782 147.295 203.782 145.288C203.782 143.282 205.407 141.655 207.41 141.655C209.414 141.655 211.038 143.282 211.038 145.288C211.038 147.295 209.414 148.922 207.41 148.922Z" fill="#FFA800"/>
<path d="M301.18 229H0.890743V227.603H301.18V229Z" fill="#151E5C"/>
</svg>
